<?xml version="1.0" encoding="utf-8"?>
<!-- Generator: Adobe Illustrator 19.0.1, SVG Export Plug-In . SVG Version: 6.00 Build 0)  -->
<svg version="1.1" id="Layer_1" xmlns="http://www.w3.org/2000/svg" xmlns:xlink="http://www.w3.org/1999/xlink" x="0px" y="0px"
	 viewBox="37.7 302.1 409.7 211" style="enable-background:new 37.7 302.1 409.7 211;" xml:space="preserve">
<style type="text/css">
	.st0{fill:none;}
	.st1{fill:#DB4C3F;}
	.st2{fill:#414042;}
	.st3{clip-path:url(#SVGID_2_);fill:#414042;}
</style>
<rect id="Protection_Zone_x21_" x="-27" y="256.6" class="st0" width="539.1" height="329.3"/>
<g id="Logo">
	<path class="st1" d="M300.1,319.2c-2.6-7-8.1-12.6-15.1-15.1c-6.4-2-12.4-2-24.4-2h-36.1c-12,0-17.9,0-24.4,2
		c-7,2.6-12.6,8.1-15.1,15.1c-2,6.4-2,12.4-2,24.4v36.1c0,12,0,17.9,2,24.4c2.6,7,8.1,12.6,15.1,15.1c6.4,2,12.4,2,24.4,2h36.1
		c12,0,17.9,0,24.4-2c7-2.6,12.6-8.1,15.1-15.1c2-6.4,2-12.4,2-24.4v-36.1C302.1,331.6,302.1,325.6,300.1,319.2z M236.6,348.8l6-18
		l6,18H268l-15.6,11.1l6,18.4l-15.7-11.5L227,378.1l6-18.2l-15.7-11.1C217.3,348.8,236.6,348.8,236.6,348.8z M291.6,379.6
		c0,11,0,16.2-1.5,21c-1.5,3.9-4.6,7-8.5,8.5c-4.8,1.5-9.9,1.5-21,1.5h-36.1c-11,0-16.2,0-21-1.5c-3.9-1.5-7-4.6-8.5-8.5
		c-1.5-4.8-1.5-9.9-1.5-21v-36c0-11,0-16.2,1.5-21c1.5-3.9,4.6-7,8.5-8.5c1-0.3,2.1-0.6,3.2-0.8c0,12.5,0,75.7,0,87.9l0,0
		c0,0.9,0.7,1.6,1.6,1.6c0.3,0,34.3-10.2,34.3-10.2s33.7,10.2,33.9,10.2c0.9,0,1.6-0.7,1.6-1.6l0,0v-87.8c1.1,0.2,2.2,0.4,3.2,0.8
		c3.9,1.5,7,4.6,8.5,8.5c1.5,4.8,1.5,9.9,1.5,21v35.9H291.6z"/>
	<g>
		<g>
			<g>
				<path id="SVGID_1_" class="st2" d="M38.5,451.3h9.7c1,0,1.8,0.2,2.5,0.7s1.1,1.1,1.3,1.9l10.5,37c0.3,0.9,0.5,1.9,0.7,3
					s0.4,2.2,0.6,3.4c0.2-1.2,0.5-2.3,0.7-3.4c0.3-1.1,0.6-2.1,0.9-3l12.1-37c0.2-0.7,0.7-1.3,1.3-1.8c0.7-0.5,1.5-0.8,2.5-0.8h3.4
					c1,0,1.8,0.2,2.5,0.7s1.1,1.1,1.4,1.9l12.1,37c0.6,1.8,1.2,3.8,1.6,6.1c0.2-1.1,0.4-2.2,0.6-3.2c0.2-1,0.4-2,0.7-2.9l10.5-37
					c0.2-0.7,0.6-1.3,1.3-1.8s1.5-0.8,2.5-0.8h9l-19.2,61.8H97.3l-13.5-42.2c-0.2-0.5-0.3-1.1-0.5-1.8c-0.2-0.6-0.4-1.3-0.5-2
					c-0.2,0.7-0.3,1.4-0.5,2s-0.4,1.2-0.5,1.8l-13.6,42.2H57.7L38.5,451.3"/>
			</g>
		</g>
		<path class="st2" d="M137.3,469.2v27.9c0,2.7,0.6,4.7,1.9,6.2c1.2,1.5,3.1,2.2,5.6,2.2c1.8,0,3.5-0.4,5.1-1.2
			c1.6-0.8,3.1-1.9,4.5-3.4v-31.7h10.5V513h-6.4c-1.4,0-2.3-0.6-2.7-1.9l-0.7-3.5c-0.9,0.9-1.9,1.7-2.8,2.5c-1,0.8-2,1.4-3.1,1.9
			s-2.3,0.9-3.5,1.2c-1.3,0.3-2.6,0.4-4.1,0.4c-2.4,0-4.5-0.3-6.3-1.1c-1.8-0.8-3.4-2-4.6-3.4c-1.3-1.5-2.2-3.2-2.8-5.3
			c-0.6-2-1-4.3-1-6.7v-27.9H137.3"/>
		<path class="st2" d="M174.1,513v-43.8h6.4c1.4,0,2.3,0.6,2.7,1.9l0.7,3.5c0.9-0.9,1.8-1.7,2.8-2.5c1-0.7,2-1.4,3.1-1.9
			s2.3-1,3.5-1.2c1.3-0.3,2.6-0.4,4.1-0.4c2.4,0,4.5,0.4,6.4,1.2c1.9,0.8,3.4,1.9,4.6,3.4s2.2,3.2,2.8,5.3c0.6,2,1,4.3,1,6.7v27.9
			h-10.5v-27.9c0-2.7-0.6-4.7-1.9-6.2c-1.2-1.5-3.1-2.2-5.6-2.2c-1.8,0-3.5,0.4-5.1,1.2c-1.6,0.8-3.1,2-4.5,3.4v31.7L174.1,513"/>
		<path class="st2" d="M312.4,513v-43.8h6.2c1.1,0,1.8,0.2,2.3,0.6c0.4,0.4,0.7,1.1,0.9,2l0.6,5.3c1.6-2.7,3.4-4.8,5.5-6.4
			c2.1-1.6,4.5-2.2,7.1-2.2c2.2,0,4,0.4,5.4,1.4l-1.4,7.9c-0.1,0.5-0.3,0.9-0.6,1.1c-0.3,0.2-0.7,0.3-1.2,0.3c-0.4,0-1-0.1-1.8-0.3
			c-0.7-0.2-1.7-0.3-2.9-0.3c-2.2,0-4.1,0.6-5.6,1.8c-1.6,1.2-2.9,3-4,5.3V513H312.4"/>
		<path class="st2" d="M347.6,454.1c-1.1,0-2.1,0.9-2.1,2.1v56.9H356v-58.9h-8.4"/>
		<path class="st2" d="M276.5,486.1c0.5-3.2,1.6-5.6,3.3-7.4c1.7-1.7,4.1-2.6,7.2-2.6c1.6,0,2.9,0.3,4.1,0.8s2.1,1.2,2.9,2.2
			c0.8,0.9,1.3,2,1.7,3.2c0.4,1.2,0.6,2.5,0.6,3.9L276.5,486.1L276.5,486.1z M304.6,493.3c0.3-0.1,0.6-0.3,0.7-0.6
			c0.2-0.3,0.3-0.7,0.4-1.2s0.1-1.2,0.1-2c0-3.2-0.5-7-1.4-9.4c-0.9-2.5-2.2-4.5-3.9-6.2c-1.7-1.7-3.7-3-6-3.9s-4.9-1.3-7.6-1.3
			c-3.3,0-6.2,0.6-8.8,1.7c-2.6,1.1-4.8,2.7-6.6,4.6c-1.8,2-3.2,4.2-4.2,6.9c-1,2.6-1.5,5.4-1.5,8.4c0,3.8,0.6,7.2,1.7,10.1
			s2.6,5.4,4.6,7.3c1.9,2,4.2,3.5,6.8,4.5c2.6,1,5.5,1.5,8.5,1.5c1.5,0,3.1-0.1,4.8-0.3c1.6-0.2,3.2-0.6,4.8-1.2
			c1.6-0.6,3.1-1.3,4.5-2.2c1.5-0.9,2.8-2.1,3.9-3.4l-3.1-3.8c-0.2-0.3-0.5-0.6-0.8-0.7c-0.3-0.2-0.7-0.3-1.1-0.3
			c-0.7,0-1.3,0.2-2,0.6c-0.7,0.4-1.5,0.8-2.4,1.3s-2,0.9-3.2,1.3c-1.2,0.4-2.7,0.6-4.4,0.6c-3.5,0-6.3-1.1-8.4-3.2
			s-3.3-4.4-3.6-8.9h27.1C303.9,493.5,304.3,493.4,304.6,493.3z"/>
		<path class="st2" d="M377.5,458.1c0,0.9-0.2,1.8-0.6,2.6c-0.4,0.8-0.9,1.5-1.5,2.1s-1.3,1.1-2.2,1.4c-0.8,0.4-1.7,0.5-2.6,0.5
			s-1.8-0.2-2.6-0.5c-0.8-0.4-1.5-0.8-2.1-1.4c-0.6-0.6-1.1-1.3-1.4-2.1c-0.4-0.8-0.5-1.7-0.5-2.6s0.2-1.8,0.5-2.6
			c0.4-0.8,0.8-1.5,1.4-2.1s1.3-1.1,2.1-1.4c0.8-0.4,1.7-0.5,2.6-0.5s1.8,0.2,2.6,0.5c0.8,0.4,1.5,0.8,2.2,1.4
			c0.6,0.6,1.1,1.3,1.5,2.1C377.3,456.3,377.5,457.2,377.5,458.1z M373.8,469c-0.2,0-0.4,0-0.6,0.1l-7.9,1.3V513h10.5v-42
			C375.9,469.9,374.9,469,373.8,469z"/>
		<path class="st2" d="M411.1,478c-0.3,0.5-0.6,0.8-0.9,1c-0.3,0.2-0.7,0.3-1.2,0.3s-1.1-0.1-1.6-0.4c-0.6-0.3-1.3-0.6-2-1
			c-0.8-0.4-1.6-0.7-2.6-1c-1-0.3-2.1-0.4-3.5-0.4c-2.1,0-3.7,0.4-4.9,1.3c-1.2,0.9-1.8,2-1.8,3.5c0,0.9,0.3,1.7,0.9,2.4
			c0.6,0.6,1.4,1.2,2.4,1.7s2.2,0.9,3.4,1.3c1.3,0.4,2.6,0.8,3.9,1.3s2.6,1,3.9,1.6s2.4,1.3,3.4,2.2s1.8,2,2.4,3.2
			c0.6,1.3,0.9,2.8,0.9,4.5c0,2.1-0.4,4-1.2,5.8c-0.8,1.8-1.9,3.3-3.4,4.6c-1.5,1.3-3.3,2.4-5.5,3.2c-2.2,0.7-4.7,1.1-7.5,1.1
			c-1.5,0-3-0.1-4.4-0.4s-2.8-0.6-4.1-1.1c-1.3-0.5-2.5-1.2-3.7-1.8c-1.1-0.7-2.1-1.4-3-2.1l2.4-4c0.3-0.5,0.7-0.9,1.1-1.1
			c0.4-0.3,1-0.4,1.6-0.4c0.7,0,1.3,0.2,1.9,0.6c0.6,0.4,1.3,0.8,2,1.2c0.8,0.4,1.7,0.8,2.7,1.2s2.4,0.6,3.9,0.6
			c1.3,0,2.3-0.1,3.2-0.4c0.9-0.3,1.6-0.7,2.2-1.2s1-1,1.3-1.7c0.3-0.6,0.4-1.3,0.4-2c0-1-0.3-1.9-0.9-2.5c-0.6-0.7-1.4-1.2-2.4-1.7
			s-2.2-0.9-3.5-1.3s-2.6-0.8-4-1.3s-2.7-1-4-1.6s-2.4-1.4-3.5-2.3c-1-0.9-1.8-2.1-2.4-3.5s-0.9-3-0.9-5c0-1.8,0.4-3.5,1.1-5.1
			s1.8-3,3.1-4.2c1.4-1.2,3.1-2.2,5.2-2.9c2.1-0.7,4.4-1.1,7.2-1.1c3,0,5.8,0.5,8.2,1.5c2.5,1,4.5,2.3,6.2,3.9L411.1,478"/>
		<g>
			<g>
				<path id="SVGID_3_" class="st2" d="M435.1,513.7c-3.8,0-6.7-1.1-8.8-3.2c-2-2.1-3.1-5.1-3.1-8.9v-24.8h-4.4
					c-0.6,0-1.1-0.2-1.5-0.6c-0.4-0.4-0.6-0.9-0.6-1.7v-4.2l7-1.2l2.2-8.6c0.1-0.6,0.4-2,0.8-2.3c0.4-0.3,0.9-0.5,1.6-0.5h5.5v11.4
					h11.5v7.5h-11.5v24.1c0,1.4,0.3,2.4,1,3.2c0.7,0.8,1.6,1.2,2.7,1.2c0.7,0,1.2-0.1,1.6-0.2c0.4-0.2,0.8-0.3,1.2-0.5
					c0.3-0.2,0.6-0.3,0.9-0.5c0.3-0.2,0.5-0.2,0.8-0.2s0.6,0.1,0.8,0.2c0.2,0.2,0.4,0.4,0.6,0.7l3.2,5.1c-1.5,1.3-3.3,2.2-5.3,2.9
					C439.3,513.4,437.2,513.7,435.1,513.7"/>
			</g>
			<g>
				<defs>
					<path id="SVGID_7_" d="M435.1,513.7c-3.8,0-6.7-1.1-8.8-3.2c-2-2.1-3.1-5.1-3.1-8.9v-24.8h-4.4c-0.6,0-1.1-0.2-1.5-0.6
						c-0.4-0.4-0.6-0.9-0.6-1.7v-4.2l7-1.2l2.2-8.6c0.1-0.6,0.4-2,0.8-2.3c0.4-0.3,0.9-0.5,1.6-0.5h5.5v11.4h11.5v7.5h-11.5v24.1
						c0,1.4,0.3,2.4,1,3.2c0.7,0.8,1.6,1.2,2.7,1.2c0.7,0,1.2-0.1,1.6-0.2c0.4-0.2,0.8-0.3,1.2-0.5c0.3-0.2,0.6-0.3,0.9-0.5
						c0.3-0.2,0.5-0.2,0.8-0.2s0.6,0.1,0.8,0.2c0.2,0.2,0.4,0.4,0.6,0.7l3.2,5.1c-1.5,1.3-3.3,2.2-5.3,2.9
						C439.3,513.4,437.2,513.7,435.1,513.7"/>
				</defs>
				<clipPath id="SVGID_2_">
					<use xlink:href="#SVGID_7_"  style="overflow:visible;"/>
				</clipPath>
				<rect x="414.7" y="455.8" class="st3" width="33.8" height="59.8"/>
			</g>
		</g>
		<path class="st2" d="M248.7,500.1c-1.4,1.7-2.8,3-4.4,3.9c-1.5,0.9-3.4,1.4-5.6,1.4c-1.4,0-2.6-0.2-3.7-0.7s-2-1.3-2.8-2.4
			s-1.4-2.6-1.8-4.4s-0.6-3.9-0.6-6.5c0-2.5,0.2-4.7,0.7-6.6c0.5-1.9,1.2-3.4,2.1-4.6c0.9-1.2,2-2.1,3.3-2.7
			c1.3-0.6,2.7-0.9,4.3-0.9c1.6,0,3.1,0.3,4.5,0.9s2.7,1.6,3.9,3.1v19.5H248.7z M248.7,454.1v18.7c-1.4-1.3-2.9-2.4-4.7-3.1
			c-1.7-0.8-3.8-1.1-6.3-1.1c-2.9,0-5.5,0.5-7.8,1.6c-2.3,1.2-4.3,2.8-5.9,4.8c-1.7,2-2.9,4.5-3.8,7.3c-0.9,2.8-1.3,5.8-1.3,9.1
			c0,3.6,0.4,6.8,1.2,9.6c0.8,2.8,1.9,5.1,3.3,7c1.4,1.9,3.2,3.3,5.1,4.3c1.9,1,4.2,1.5,6.6,1.5c1.5,0,3-0.2,4.3-0.5
			s2.6-0.8,3.7-1.4c1.2-0.6,2.2-1.3,3.2-2.1c1-0.8,1.9-1.8,2.9-2.8l0.9,4.2c0.4,1.3,1.3,1.9,2.7,1.9h6.4v-59L248.7,454.1
			L248.7,454.1z"/>
	</g>
</g>
</svg>
