<?xml version="1.0" encoding="UTF-8" standalone="no"?>
<svg width="179px" height="41px" viewBox="0 0 179 41" version="1.1" xmlns="http://www.w3.org/2000/svg" xmlns:xlink="http://www.w3.org/1999/xlink" xmlns:sketch="http://www.bohemiancoding.com/sketch/ns">
    <!-- Generator: Sketch 3.3.3 (12072) - http://www.bohemiancoding.com/sketch -->
    <title>WunderlistLogoGrey</title>
    <desc>Created with Sketch.</desc>
    <defs>
        <path id="path-1" d="M6.35822222,18.4706263 C5.11250505,18.4706263 4.1530101,18.1170303 3.47834343,17.410303 C2.80414141,16.7035758 2.46680808,15.7273535 2.46680808,14.482101 L2.46680808,6.32941414 L1.0059596,6.32941414 C0.818707071,6.32941414 0.657010101,6.26854545 0.521333333,6.14680808 C0.385656566,6.02507071 0.317818182,5.84246465 0.317818182,5.5989899 L0.317818182,4.22270707 L2.63547475,3.84355556 L3.36589899,1.00270707 C3.40353535,0.815454545 3.4899596,0.341515152 3.62610101,0.238363636 C3.76177778,0.135212121 3.93276768,0.0841010101 4.13860606,0.0841010101 L5.93678788,0.0841010101 L5.93678788,3.83844444 L9.72969697,3.83844444 L9.72969697,6.31036364 L5.93678788,6.31036364 L5.93678788,14.2432727 C5.93678788,14.6925859 6.04923232,15.0438586 6.27412121,15.2966263 C6.49854545,15.5493939 6.79824242,15.6757778 7.17274747,15.6757778 C7.38834343,15.6757778 7.56862626,15.6502222 7.71406061,15.5986465 C7.8590303,15.5470707 7.98541414,15.4931717 8.09321212,15.4369495 C8.2010101,15.3807273 8.29672727,15.3272929 8.38129293,15.2752525 C8.46539394,15.2241414 8.5499596,15.1985859 8.63406061,15.1985859 C8.73674747,15.1985859 8.82131313,15.2241414 8.88682828,15.2752525 C8.95234343,15.3272929 9.02250505,15.4044242 9.09777778,15.5075758 L10.1371919,17.1928485 C9.63119192,17.6138182 9.05084848,17.9325657 8.39523232,18.147697 C7.73961616,18.3628283 7.06076768,18.4706263 6.35822222,18.4706263 L6.35822222,18.4706263 Z"></path>
    </defs>
    <g id="Page-1" stroke="none" stroke-width="1" fill="none" fill-rule="evenodd" sketch:type="MSPage">
        <g id="Artboard-Copy-3" sketch:type="MSArtboardGroup" transform="translate(-2324.000000, -699.000000)">
            <g id="WunderlistLogoGrey" sketch:type="MSLayerGroup" transform="translate(2324.000000, 699.000000)">
                <path d="M46.3800606,11.8051919 L49.5587071,11.8051919 C49.8872121,11.8051919 50.1608889,11.8832525 50.381596,12.0375152 C50.6018384,12.1922424 50.749596,12.4008687 50.824404,12.6633939 L54.2846263,24.8259798 C54.3687273,25.1261414 54.4463232,25.4518586 54.5164848,25.803596 C54.5866465,26.1548687 54.6549495,26.5275152 54.72,26.9210707 C54.7952727,26.5275152 54.8775152,26.1548687 54.9662626,25.803596 C55.0554747,25.4518586 55.1516566,25.1261414 55.2548081,24.8259798 L59.2489091,12.6633939 C59.3241818,12.4473333 59.4719394,12.2507879 59.6921818,12.0728283 C59.9124242,11.894404 60.1819192,11.8051919 60.5006667,11.8051919 L61.6116364,11.8051919 C61.9401414,11.8051919 62.2119596,11.8832525 62.4275556,12.0375152 C62.6431515,12.1922424 62.7932323,12.4008687 62.877798,12.6633939 L66.8435556,24.8259798 C67.0498586,25.426303 67.2282828,26.0916768 67.3783636,26.8225657 C67.4438788,26.4573535 67.5117172,26.1060808 67.5823434,25.7682828 C67.6520404,25.4309495 67.7249899,25.1168485 67.799798,24.8259798 L71.2595556,12.6633939 C71.3255354,12.4287475 71.4705051,12.2275556 71.6958586,12.0588889 C71.9207475,11.8897576 72.1925657,11.8051919 72.5113131,11.8051919 L75.4790101,11.8051919 L69.1644646,32.1381212 L65.7465253,32.1381212 L61.3021818,18.2456566 C61.2459596,18.0672323 61.1874141,17.8753333 61.1265455,17.6690303 C61.0656768,17.4627273 61.0071313,17.2424848 60.9509091,17.0078384 C60.8946869,17.2424848 60.8361414,17.4627273 60.7748081,17.6690303 C60.7139394,17.8753333 60.6553939,18.0672323 60.5991717,18.2456566 L56.1130101,32.1381212 L52.6950707,32.1381212 L46.3800606,11.8051919" id="Fill-1" fill="#5B5B5B" sketch:type="MSShapeGroup"></path>
                <path d="M78.8811515,17.7071313 L78.8811515,26.8857576 C78.8811515,27.765798 79.0846667,28.4469697 79.4921616,28.9288081 C79.8996566,29.4111111 80.5106667,29.6522626 81.3251919,29.6522626 C81.9250505,29.6522626 82.4868081,29.5189091 83.0109293,29.252202 C83.5355152,28.9850303 84.0317576,28.6174949 84.5001212,28.149596 L84.5001212,17.7071313 L87.970101,17.7071313 L87.970101,32.1218586 L85.8485253,32.1218586 C85.3992121,32.1218586 85.1041616,31.9276364 84.9638384,31.506202 L84.7250101,30.3543434 C84.4253131,30.6540404 84.1163232,30.9281818 83.7980404,31.176303 C83.4792929,31.4244242 83.1396364,31.6349091 82.7795354,31.8082222 C82.4189697,31.9815354 82.0300606,32.1172121 81.6132727,32.2157172 C81.1964848,32.3137576 80.7494949,32.3369899 80.2718384,32.3369899 C79.4851919,32.3369899 78.7896162,32.2296566 78.1860404,31.9629495 C77.5815354,31.6957778 77.0736768,31.3189495 76.6615354,30.832 C76.2493939,30.3450505 75.9380808,29.7670303 75.727596,29.0979394 C75.5166465,28.4283838 75.4111717,27.6905253 75.4111717,26.8857576 L75.4111717,17.7071313 L78.8811515,17.7071313" id="Fill-2" fill="#5B5B5B" sketch:type="MSShapeGroup"></path>
                <path d="M90.5721212,32.1218586 L90.5721212,17.7117778 L92.6932323,17.7117778 C93.1430101,17.7117778 93.437596,17.9222626 93.5783838,18.343697 L93.8172121,19.4811515 C94.1076162,19.1814545 94.4142828,18.910101 94.7372121,18.6666263 C95.0601414,18.4231515 95.4021212,18.2126667 95.7626869,18.0347071 C96.1232525,17.8567475 96.5093737,17.7210707 96.9219798,17.6276768 C97.3336566,17.5338182 97.7834343,17.4868889 98.2703838,17.4868889 C99.0570303,17.4868889 99.7549293,17.6202424 100.363616,17.8874141 C100.972303,18.1541212 101.480162,18.5286263 101.887657,19.0109293 C102.295152,19.4927677 102.604141,20.0689293 102.814626,20.7384848 C103.025576,21.4080404 103.131051,22.1449697 103.131051,22.950202 L103.131051,32.1218586 L99.6610707,32.1218586 L99.6610707,22.950202 C99.6610707,22.0701616 99.4570909,21.3889899 99.0500606,20.9066869 C98.6425657,20.4243838 98.0315556,20.1832323 97.2165657,20.1832323 C96.6176364,20.1832323 96.0554141,20.3193737 95.5308283,20.5907273 C95.0067071,20.8625455 94.51,21.232404 94.042101,21.700303 L94.042101,32.1218586 L90.5721212,32.1218586" id="Fill-3" fill="#5B5B5B" sketch:type="MSShapeGroup"></path>
                <path d="M134.759071,32.12 L134.759071,17.7099192 L136.796081,17.7099192 C137.151535,17.7099192 137.400121,17.7754343 137.540909,17.9064646 C137.680768,18.0379596 137.774626,18.2623838 137.821556,18.5806667 L138.032505,20.3221616 C138.547333,19.4328283 139.151374,18.7307475 139.844626,18.2154545 C140.537414,17.7006263 141.314768,17.4859596 142.176687,17.4859596 C142.888061,17.4859596 143.477697,17.6067677 143.946525,17.9348081 L143.496747,20.5326465 C143.468869,20.7017778 143.408,20.8211919 143.314141,20.8908889 C143.220747,20.9610505 143.094364,20.9963636 142.93499,20.9963636 C142.794667,20.9963636 142.602303,20.9633737 142.358828,20.8978586 C142.115818,20.8323434 141.792424,20.7998182 141.389576,20.7998182 C140.668444,20.7998182 140.050465,20.9986869 139.535636,21.3968889 C139.020343,21.7946263 138.58497,22.3772929 138.228586,23.1453535 L138.228586,32.12 L134.759071,32.12" id="Fill-4" fill="#5B5B5B" sketch:type="MSShapeGroup"></path>
                <path d="M146.362687,12.7358788 C145.986323,12.7358788 145.681515,13.0411515 145.681515,13.4175152 L145.681515,32.1218586 L149.15103,32.1218586 L149.15103,12.7358788 L146.362687,12.7358788" id="Fill-5" fill="#5B5B5B" sketch:type="MSShapeGroup"></path>
                <path d="M132.617051,25.6247071 C132.719737,25.5828889 132.80198,25.5127273 132.862848,25.4142222 C132.923717,25.3161818 132.965535,25.1800404 132.989232,25.0071919 C133.012465,24.8338788 133.024545,24.6164242 133.024545,24.353899 C133.024545,23.3149495 132.869818,22.0608687 132.560828,21.2509899 C132.251838,20.4411111 131.821111,19.7576162 131.268646,19.2005051 C130.716182,18.6433939 130.057778,18.2196364 129.294828,17.929697 C128.531414,17.6392929 127.695515,17.4943232 126.787131,17.4943232 C125.710545,17.4943232 124.743152,17.6815758 123.886343,18.0560808 C123.029535,18.4301212 122.303758,18.9384444 121.70901,19.5796566 C121.114263,20.2213333 120.657515,20.9749899 120.339232,21.8410909 C120.020949,22.7071919 119.861576,23.6313737 119.861576,24.6150303 C119.861576,25.8788687 120.044182,26.9907677 120.409394,27.9507273 C120.774606,28.9102222 121.27596,29.7149899 121.912525,30.3664242 C122.549556,31.0169293 123.298566,31.5085253 124.16002,31.8407475 C125.021939,32.1729697 125.95402,32.3393131 126.955798,32.3393131 C127.461798,32.3393131 127.983596,32.3021414 128.522121,32.2268687 C129.060646,32.1520606 129.589414,32.0233535 130.109354,31.8407475 C130.629293,31.6581414 131.127859,31.4146667 131.605515,31.1103232 C132.083172,30.8059798 132.513899,30.4291515 132.898162,29.9798384 L131.886626,28.7155354 C131.811354,28.6128485 131.722606,28.5333939 131.619455,28.4771717 C131.516768,28.4209495 131.39503,28.3926061 131.254242,28.3926061 C131.039111,28.3926061 130.816545,28.4585859 130.58701,28.5896162 C130.357475,28.7201818 130.090768,28.8656162 129.786424,29.0245253 C129.482081,29.183899 129.126162,29.3288687 128.718667,29.4603636 C128.311172,29.5913939 127.82701,29.6569091 127.264788,29.6569091 C126.122222,29.6569091 125.204545,29.3107475 124.511758,28.6174949 C123.81804,27.9247071 123.420303,27.1673333 123.317616,25.687899 L132.22396,25.687899 C132.382869,25.687899 132.513899,25.6669899 132.617051,25.6247071 L132.617051,25.6247071 Z M123.387313,23.2661616 C123.546687,22.2179192 123.911899,21.4080404 124.483414,20.8369899 C125.054465,20.2654747 125.845758,19.9801818 126.857293,19.9801818 C127.372586,19.9801818 127.821899,20.0666061 128.205697,20.2394545 C128.58996,20.4132323 128.908242,20.6497374 129.16101,20.9489697 C129.414242,21.2486667 129.601495,21.5976162 129.723232,21.9953535 C129.84497,22.3930909 129.905838,22.8168485 129.905838,23.2661616 L123.387313,23.2661616 L123.387313,23.2661616 Z" id="Fill-6" fill="#5B5B5B" sketch:type="MSShapeGroup"></path>
                <path d="M154.543717,17.6276768 C154.471697,17.6276768 154.403859,17.6425455 154.338343,17.6629899 L151.755838,18.0890707 L151.755838,32.12 L155.225354,32.12 L155.225354,18.3093131 C155.225354,17.9329495 154.920081,17.6276768 154.543717,17.6276768 L154.543717,17.6276768 Z M155.763414,14.0475758 C155.763414,14.3472727 155.702545,14.6279192 155.580808,14.8904444 C155.459071,15.1520404 155.297374,15.3820404 155.096182,15.5781212 C154.894525,15.7751313 154.658485,15.9317172 154.386667,16.0488081 C154.114848,16.165899 153.824909,16.2244444 153.515919,16.2244444 C153.216222,16.2244444 152.932788,16.165899 152.666081,16.0488081 C152.398909,15.9317172 152.167051,15.7751313 151.970505,15.5781212 C151.77396,15.3820404 151.616909,15.1520404 151.499818,14.8904444 C151.382727,14.6279192 151.324182,14.3472727 151.324182,14.0475758 C151.324182,13.7385859 151.382727,13.4481818 151.499818,13.1768283 C151.616909,12.9050101 151.77396,12.6708283 151.970505,12.4747475 C152.167051,12.2777374 152.398909,12.1206869 152.666081,12.0040606 C152.932788,11.8869697 153.216222,11.8284242 153.515919,11.8284242 C153.824909,11.8284242 154.114848,11.8869697 154.386667,12.0040606 C154.658485,12.1206869 154.894525,12.2777374 155.096182,12.4747475 C155.297374,12.6708283 155.459071,12.9050101 155.580808,13.1768283 C155.702545,13.4481818 155.763414,13.7385859 155.763414,14.0475758 L155.763414,14.0475758 Z" id="Fill-7" fill="#5B5B5B" sketch:type="MSShapeGroup"></path>
                <path d="M166.782505,20.5777172 C166.688646,20.727798 166.590141,20.8332727 166.48699,20.8941414 C166.384303,20.9550101 166.253273,20.9852121 166.093899,20.9852121 C165.925232,20.9852121 165.744949,20.9382828 165.553051,20.8448889 C165.361152,20.7514949 165.138586,20.6460202 164.885818,20.5289293 C164.633051,20.4118384 164.34497,20.3063636 164.02204,20.2125051 C163.698646,20.1191111 163.317172,20.0721818 162.877152,20.0721818 C162.193192,20.0721818 161.655131,20.2176162 161.261111,20.5080202 C160.86802,20.7979596 160.671475,21.1771111 160.671475,21.6454747 C160.671475,21.9544646 160.771838,22.214202 160.973495,22.4246869 C161.174687,22.6356364 161.441859,22.8205657 161.774545,22.9794747 C162.106768,23.1388485 162.483596,23.2814949 162.90503,23.4078788 C163.326465,23.5347273 163.757192,23.6722626 164.197677,23.8223434 C164.637697,23.9719596 165.068424,24.1429495 165.489859,24.3348485 C165.911293,24.5267475 166.288586,24.7702222 166.620808,25.0652727 C166.95303,25.3598586 167.219737,25.7139192 167.421394,26.125596 C167.622586,26.5377374 167.723414,27.0339798 167.723414,27.6143232 C167.723414,28.3071111 167.59703,28.9464646 167.344263,29.5314545 C167.091495,30.1164444 166.721636,30.6224444 166.234222,31.0485253 C165.747273,31.4741414 165.145556,31.8477172 164.429071,32.0865455 C163.713051,32.3253737 162.891091,32.4447879 161.963657,32.4447879 C161.467414,32.4447879 160.982788,32.4006465 160.509778,32.3114343 C160.036768,32.2226869 159.582808,32.0986263 159.14697,31.9392525 C158.711596,31.7798788 158.309212,31.5517374 157.939354,31.3361414 C157.569495,31.1210101 157.243778,30.8868283 156.962667,30.6340606 L157.763253,29.314 C157.866869,29.1546263 157.988606,29.0328889 158.128465,28.9487879 C158.269253,28.8646869 158.447212,28.822404 158.662808,28.822404 C158.877939,28.822404 159.081455,28.8832727 159.273818,29.0050101 C159.465717,29.1267475 159.688283,29.2577778 159.941051,29.398101 C160.193818,29.5384242 160.491192,29.6694545 160.832707,29.7911919 C161.174687,29.9129293 161.607737,29.973798 162.132323,29.973798 C162.544465,29.973798 162.898061,29.9250101 163.193111,29.8265051 C163.488162,29.728 163.731636,29.5992929 163.923535,29.4403838 C164.115434,29.2810101 164.256222,29.0960808 164.34497,28.885596 C164.433717,28.6746465 164.478788,28.4571919 164.478788,28.232303 C164.478788,27.8954343 164.37796,27.6194343 164.176303,27.4038384 C163.975111,27.1882424 163.708404,27.0009899 163.375717,26.8416162 C163.04303,26.6827071 162.663879,26.5400606 162.237798,26.4136768 C161.811717,26.2872929 161.376343,26.1488283 160.931212,25.9992121 C160.486545,25.849596 160.051172,25.6739596 159.625091,25.4727677 C159.19901,25.2711111 158.819394,25.0164848 158.487172,24.7070303 C158.154485,24.3980404 157.887313,24.0188889 157.686586,23.5695758 C157.484929,23.119798 157.384566,22.5770909 157.384566,21.9400606 C157.384566,21.3504242 157.501657,20.7886667 157.735374,20.2547879 C157.969556,19.7213737 158.313859,19.2553333 158.767818,18.857596 C159.222242,18.4593939 159.788646,18.1411111 160.467495,17.9027475 C161.146808,17.6639192 161.931131,17.5445051 162.820929,17.5445051 C163.813414,17.5445051 164.717152,17.7080606 165.531677,18.0356364 C166.346667,18.3636768 167.02598,18.794404 167.569152,19.3282828 L166.782505,20.5777172" id="Fill-8" fill="#5B5B5B" sketch:type="MSShapeGroup"></path>
                <path d="M174.600646,32.3393131 C173.354929,32.3393131 172.395434,31.9857172 171.720768,31.2789899 C171.046566,30.5722626 170.709232,29.5960404 170.709232,28.3507879 L170.709232,20.198101 L169.248384,20.198101 C169.061131,20.198101 168.899434,20.1372323 168.763758,20.0154949 C168.628081,19.8937576 168.560242,19.7111515 168.560242,19.4676768 L168.560242,18.0913939 L170.877899,17.7122424 L171.608323,14.8713939 C171.64596,14.6841414 171.732384,14.210202 171.868525,14.1070505 C172.004202,14.003899 172.175192,13.9527879 172.38103,13.9527879 L174.179212,13.9527879 L174.179212,17.7071313 L177.972121,17.7071313 L177.972121,20.1790505 L174.179212,20.1790505 L174.179212,28.1119596 C174.179212,28.5612727 174.291657,28.9125455 174.516545,29.1653131 C174.74097,29.4180808 175.040667,29.5444646 175.415172,29.5444646 C175.630768,29.5444646 175.811051,29.5189091 175.956485,29.4673333 C176.101455,29.4157576 176.227838,29.3618586 176.335636,29.3056364 C176.443434,29.2494141 176.539152,29.1959798 176.623717,29.1439394 C176.707818,29.0928283 176.792384,29.0672727 176.876485,29.0672727 C176.979172,29.0672727 177.063737,29.0928283 177.129253,29.1439394 C177.194768,29.1959798 177.264929,29.2731111 177.340202,29.3762626 L178.379616,31.0615354 C177.873616,31.4825051 177.293273,31.8012525 176.637657,32.0163838 C175.98204,32.2315152 175.303192,32.3393131 174.600646,32.3393131" id="Fill-9" fill="#5B5B5B" sketch:type="MSShapeGroup"></path>
                <g id="Group-12" transform="translate(168.242424, 13.868687)">
                    <mask id="mask-2" sketch:name="Clip 11" fill="white">
                        <use xlink:href="#path-1"></use>
                    </mask>
                    <g id="Clip-11"></g>
                    <path d="M0.317818182,0.0841010101 L10.1371919,0.0841010101 L10.1371919,18.4706263 L0.317818182,18.4706263 L0.317818182,0.0841010101 Z" id="Fill-10" fill="#5B5B5B" sketch:type="MSShapeGroup" mask="url(#mask-2)"></path>
                </g>
                <path d="M114.657071,12.7261212 L114.657071,18.8678182 C114.207293,18.4370909 113.697111,18.0932525 113.125596,17.8353737 C112.554545,17.5779596 111.865939,17.4859596 111.060707,17.4859596 C110.114687,17.4859596 109.262525,17.6388283 108.504222,18.0179798 C107.745455,18.3971313 107.094485,18.9240404 106.551313,19.5982424 C106.008141,20.2724444 105.591354,21.0679192 105.300949,21.985596 C105.01101,22.9037374 104.865576,23.8957576 104.865576,24.9635152 C104.865576,26.1432525 104.994283,27.1914949 105.252162,28.1096364 C105.509111,29.0268485 105.874788,29.7972323 106.347798,30.4193939 C106.820808,31.0424848 107.384889,31.5173535 108.040505,31.8449293 C108.696121,32.1729697 109.416788,32.3369899 110.203899,32.3369899 C110.709434,32.3369899 111.180121,32.2830909 111.615495,32.1752929 C112.050869,32.0674949 112.458364,31.9155556 112.83798,31.7190101 C113.217131,31.522 113.570727,31.2882828 113.898303,31.0169293 C114.226343,30.7451111 114.539515,30.4407677 114.839677,30.103899 L115.120323,31.4941212 C115.261111,31.9155556 115.555697,32.1260404 116.005475,32.1260404 L118.126586,32.1260404 L118.126586,12.7261212 L114.657071,12.7261212 L114.657071,12.7261212 Z M114.657071,27.856404 C114.207293,28.4088687 113.730101,28.8349495 113.224101,29.1346465 C112.718566,29.4343434 112.104768,29.5839596 111.383636,29.5839596 C110.934323,29.5839596 110.526828,29.5021818 110.161616,29.3381616 C109.796404,29.1746061 109.487414,28.9074343 109.234182,28.5375758 C108.981414,28.1677172 108.787192,27.6905253 108.651515,27.1050707 C108.515838,26.5200808 108.448,25.8059192 108.448,24.9635152 C108.448,24.1299394 108.527455,23.4064848 108.686828,22.7931515 C108.845737,22.1802828 109.072949,21.6742828 109.368,21.2765455 C109.663051,20.8788081 110.023152,20.5809697 110.449697,20.3848889 C110.875778,20.1878788 111.351111,20.0898384 111.875232,20.0898384 C112.409576,20.0898384 112.908141,20.1878788 113.371394,20.3848889 C113.835111,20.5809697 114.263515,20.918303 114.657071,21.3959596 L114.657071,27.856404 L114.657071,27.856404 Z" id="Fill-13" fill="#5B5B5B" sketch:type="MSShapeGroup"></path>
                <path d="M37.0256897,26.6402651 C37.0256897,30.2467143 37.0256897,31.892832 36.5081852,33.570701 L36.496227,33.6061634 C35.9115088,35.1549655 34.6876417,36.3775955 33.1380149,36.9598395 L33.1029648,36.9717978 C31.4226217,37.4893022 29.7740299,37.4893022 26.1613954,37.4893022 L13.8381922,37.4893022 C10.2255577,37.4893022 8.5769659,37.4893022 6.89703517,36.9717978 L6.86198507,36.9598395 C5.3119459,36.3767708 4.08766649,35.1549655 3.50377304,33.6069881 L3.49140242,33.5715257 C2.97389798,31.892832 2.97389798,30.2467143 2.97389798,26.6402651 L2.97389798,14.2853107 C2.97389798,10.6788614 2.97389798,9.03274376 3.49140242,7.35446245 L3.50377304,7.31941235 C4.08766649,5.77102259 5.31153355,4.54880495 6.86198507,3.96573621 L6.89703517,3.95377794 C7.13908705,3.87914184 7.38072657,3.81646402 7.62731434,3.76203327 C7.62731434,4.00820869 7.61123253,29.2587138 7.6087584,33.8189381 C7.6087584,33.8201752 7.60793369,33.822237 7.60793369,33.8238864 C7.60793369,34.1277914 7.85410911,34.3739668 8.1580141,34.3739668 C8.24708259,34.3739668 8.33079048,34.3504626 8.40501423,34.3129384 L20.0618531,30.1778512 L31.6102429,34.2960319 C31.6890025,34.3393291 31.778071,34.3661321 31.8733248,34.3661321 C32.1772298,34.3661321 32.4238176,34.1199567 32.4238176,33.8160517 C32.4238176,33.8123405 32.4229929,33.8098663 32.4229929,33.8061552 L32.4221682,3.77275448 C32.6518494,3.8247111 32.8774071,3.88409009 33.1029648,3.95377794 L33.1380149,3.96573621 C34.6876417,4.5483926 35.9115088,5.77061024 36.496227,7.31941235 L36.5081852,7.35446245 C37.0256897,9.03068199 37.0256897,10.6735008 37.0256897,14.27294 L37.0256897,26.6402651 L37.0256897,26.6402651 Z M24.7466084,25.5231978 L20.0164942,22.0631343 L15.2859676,25.4770141 L17.0920787,20.0120848 L12.3611397,16.658821 L18.2087337,16.658821 L20.0164942,11.087092 L21.8226053,16.658821 L27.6701992,16.658821 L22.9396726,19.9964154 L24.7466084,25.5231978 L24.7466084,25.5231978 Z M39.3163169,6.22419978 C38.4569708,3.86388474 36.5989031,2.00499232 34.2385881,1.14605867 C32.0778525,0.462787879 30.0701002,0.462787879 26.0541833,0.462787879 L13.944992,0.462787879 C9.92907509,0.462787879 7.92214754,0.462787879 5.76058719,1.14605867 C3.40027215,2.00499232 1.54179209,3.86388474 0.683270793,6.22419978 C0,8.38534777 0,10.3931 0,14.4090169 L0,26.5161465 C0,30.5324757 0,32.5398156 0.683270793,34.7022007 C1.54179209,37.061691 3.40027215,38.9205834 5.76058719,39.7795171 C7.92214754,40.4627879 9.92907509,40.4627879 13.944992,40.4627879 L26.0541833,40.4627879 C30.0701002,40.4627879 32.0778525,40.4627879 34.2385881,39.7795171 C36.5989031,38.9205834 38.4569708,37.061691 39.3163169,34.7022007 C40,32.5398156 40,30.5324757 40,26.5161465 L40,14.4090169 C40,10.3931 40,8.38534777 39.3163169,6.22419978 L39.3163169,6.22419978 Z" id="Fill-14" fill="#DB4C3F" sketch:type="MSShapeGroup"></path>
            </g>
        </g>
    </g>
</svg>